<mxfile host="app.diagrams.net" agent="Mozilla/5.0 (Windows NT 10.0; Win64; x64) AppleWebKit/537.36 (KHTML, like Gecko) Chrome/128.0.0.0 Safari/537.36 OPR/114.0.0.0" version="24.8.3">
  <diagram name="Page-1" id="-t3D8tozQZ-3le6uJniR">
    <mxGraphModel dx="1836" dy="1708" grid="1" gridSize="10" guides="1" tooltips="1" connect="1" arrows="1" fold="1" page="1" pageScale="1" pageWidth="827" pageHeight="1169" math="0" shadow="0">
      <root>
        <mxCell id="0" />
        <mxCell id="1" parent="0" />
        <mxCell id="lki_QQq5al1q6wE596kW-3" value="" style="whiteSpace=wrap;html=1;shape=mxgraph.basic.pentagon" parent="1" vertex="1">
          <mxGeometry x="70" y="210" width="300" height="320" as="geometry" />
        </mxCell>
        <mxCell id="lki_QQq5al1q6wE596kW-4" value="Kube namspace u-qhjph" style="text;html=1;align=center;verticalAlign=middle;resizable=0;points=[];autosize=1;strokeColor=none;fillColor=none;" parent="1" vertex="1">
          <mxGeometry x="200" y="570" width="150" height="30" as="geometry" />
        </mxCell>
        <mxCell id="lki_QQq5al1q6wE596kW-5" value="Deployment webapp" style="text;html=1;align=center;verticalAlign=middle;resizable=0;points=[];autosize=1;fontColor=#FAFAFA;" parent="1" vertex="1">
          <mxGeometry x="120" y="530" width="130" height="30" as="geometry" />
        </mxCell>
        <mxCell id="lki_QQq5al1q6wE596kW-14" value="" style="fontColor=#0066CC;verticalAlign=top;verticalLabelPosition=bottom;labelPosition=center;align=center;html=1;outlineConnect=0;fillColor=#CCCCCC;strokeColor=#6881B3;gradientColor=none;gradientDirection=north;strokeWidth=2;shape=mxgraph.networks.virtual_pc;" parent="1" vertex="1">
          <mxGeometry x="670" width="115" height="85" as="geometry" />
        </mxCell>
        <mxCell id="lki_QQq5al1q6wE596kW-25" value="" style="swimlane;startSize=0;strokeWidth=2;" parent="1" vertex="1">
          <mxGeometry x="-60" y="20" width="640" height="580" as="geometry">
            <mxRectangle x="-60" y="70" width="50" height="40" as="alternateBounds" />
          </mxGeometry>
        </mxCell>
        <mxCell id="lki_QQq5al1q6wE596kW-2" value="" style="whiteSpace=wrap;html=1;shape=mxgraph.basic.pentagon;fillColor=#36AEFF;fontColor=#ffffff;strokeColor=#001DBC;" parent="lki_QQq5al1q6wE596kW-25" vertex="1">
          <mxGeometry x="60" y="10" width="540" height="540" as="geometry" />
        </mxCell>
        <mxCell id="lki_QQq5al1q6wE596kW-30" value="kube controler" style="whiteSpace=wrap;html=1;shape=mxgraph.basic.pentagon" parent="lki_QQq5al1q6wE596kW-25" vertex="1">
          <mxGeometry y="460" width="90" height="90" as="geometry" />
        </mxCell>
        <mxCell id="lki_QQq5al1q6wE596kW-32" value="Donne ip interne" style="text;html=1;align=center;verticalAlign=middle;resizable=0;points=[];autosize=1;strokeColor=none;fillColor=none;" parent="lki_QQq5al1q6wE596kW-25" vertex="1">
          <mxGeometry x="30" y="430" width="110" height="30" as="geometry" />
        </mxCell>
        <mxCell id="lki_QQq5al1q6wE596kW-35" value="" style="group" parent="lki_QQq5al1q6wE596kW-25" vertex="1" connectable="0">
          <mxGeometry x="160" y="320" width="200" height="120" as="geometry" />
        </mxCell>
        <mxCell id="lki_QQq5al1q6wE596kW-37" value="" style="group" parent="lki_QQq5al1q6wE596kW-35" vertex="1" connectable="0">
          <mxGeometry x="-20" width="185" height="120" as="geometry" />
        </mxCell>
        <mxCell id="lki_QQq5al1q6wE596kW-38" value="webapp-deployment-86ddf5787b-rkqq8" style="whiteSpace=wrap;html=1;shape=mxgraph.basic.pentagon" parent="lki_QQq5al1q6wE596kW-37" vertex="1">
          <mxGeometry x="-25" width="120" height="120" as="geometry" />
        </mxCell>
        <mxCell id="NWX7TOXLLlOgiwmodDzZ-6" value="port 80" style="text;html=1;align=center;verticalAlign=middle;resizable=0;points=[];autosize=1;strokeColor=none;fillColor=none;" parent="lki_QQq5al1q6wE596kW-37" vertex="1">
          <mxGeometry x="125" width="60" height="30" as="geometry" />
        </mxCell>
        <mxCell id="lki_QQq5al1q6wE596kW-36" value="webapp-deployment-86ddf5787b-qsrrs" style="whiteSpace=wrap;html=1;shape=mxgraph.basic.pentagon" parent="lki_QQq5al1q6wE596kW-35" vertex="1">
          <mxGeometry x="-25" width="120" height="120" as="geometry" />
        </mxCell>
        <mxCell id="lki_QQq5al1q6wE596kW-6" value="webapp-deployment-86ddf5787b-j5xps" style="whiteSpace=wrap;html=1;shape=mxgraph.basic.pentagon" parent="lki_QQq5al1q6wE596kW-35" vertex="1">
          <mxGeometry width="120" height="120" as="geometry" />
        </mxCell>
        <mxCell id="lki_QQq5al1q6wE596kW-29" value="ip 10.42.1.67" style="text;html=1;align=center;verticalAlign=middle;resizable=0;points=[];autosize=1;strokeColor=none;fillColor=none;" parent="lki_QQq5al1q6wE596kW-35" vertex="1">
          <mxGeometry x="15" y="80" width="90" height="30" as="geometry" />
        </mxCell>
        <mxCell id="lki_QQq5al1q6wE596kW-31" value="" style="endArrow=classic;html=1;rounded=0;exitX=1;exitY=0.365;exitDx=0;exitDy=0;exitPerimeter=0;entryX=0.268;entryY=0.988;entryDx=0;entryDy=0;entryPerimeter=0;startArrow=classic;startFill=1;" parent="lki_QQq5al1q6wE596kW-25" source="lki_QQq5al1q6wE596kW-30" target="lki_QQq5al1q6wE596kW-36" edge="1">
          <mxGeometry width="50" height="50" relative="1" as="geometry">
            <mxPoint x="120" y="441.25999999999993" as="sourcePoint" />
            <mxPoint x="295.4000000000001" y="370.00000000000006" as="targetPoint" />
          </mxGeometry>
        </mxCell>
        <mxCell id="NWX7TOXLLlOgiwmodDzZ-7" value="port: 8000" style="text;html=1;align=center;verticalAlign=middle;resizable=0;points=[];autosize=1;strokeColor=none;fillColor=none;" parent="lki_QQq5al1q6wE596kW-25" vertex="1">
          <mxGeometry x="280" y="270" width="80" height="30" as="geometry" />
        </mxCell>
        <mxCell id="NWX7TOXLLlOgiwmodDzZ-1" value="ClusterIP&lt;div&gt;web-entry&lt;/div&gt;&lt;div&gt;ip:10.43.60.187&lt;/div&gt;" style="rounded=1;whiteSpace=wrap;html=1;" parent="lki_QQq5al1q6wE596kW-25" vertex="1">
          <mxGeometry x="160" y="210" width="160" height="60" as="geometry" />
        </mxCell>
        <mxCell id="NWX7TOXLLlOgiwmodDzZ-5" value="" style="shape=flexArrow;endArrow=classic;startArrow=classic;html=1;rounded=0;exitX=0.787;exitY=0.215;exitDx=0;exitDy=0;exitPerimeter=0;entryX=0.75;entryY=1;entryDx=0;entryDy=0;" parent="lki_QQq5al1q6wE596kW-25" source="lki_QQq5al1q6wE596kW-6" target="NWX7TOXLLlOgiwmodDzZ-1" edge="1">
          <mxGeometry width="100" height="100" relative="1" as="geometry">
            <mxPoint x="480" y="330" as="sourcePoint" />
            <mxPoint x="580" y="230" as="targetPoint" />
          </mxGeometry>
        </mxCell>
        <mxCell id="NWX7TOXLLlOgiwmodDzZ-8" value="postgresql-deployment-b78866588-ndq6q&amp;nbsp;&amp;nbsp;&lt;div&gt;&lt;br&gt;&lt;/div&gt;&lt;div&gt;ip&amp;nbsp;10.42.1.125&lt;/div&gt;" style="whiteSpace=wrap;html=1;shape=mxgraph.basic.pentagon" parent="lki_QQq5al1q6wE596kW-25" vertex="1">
          <mxGeometry x="360" y="400" width="140" height="140" as="geometry" />
        </mxCell>
        <mxCell id="NWX7TOXLLlOgiwmodDzZ-14" value="" style="endArrow=none;dashed=1;html=1;rounded=0;entryX=0;entryY=0.365;entryDx=0;entryDy=0;entryPerimeter=0;exitX=0.972;exitY=0.861;exitDx=0;exitDy=0;exitPerimeter=0;" parent="lki_QQq5al1q6wE596kW-25" source="lki_QQq5al1q6wE596kW-29" target="NWX7TOXLLlOgiwmodDzZ-8" edge="1">
          <mxGeometry width="50" height="50" relative="1" as="geometry">
            <mxPoint x="400" y="310" as="sourcePoint" />
            <mxPoint x="450" y="260" as="targetPoint" />
          </mxGeometry>
        </mxCell>
        <mxCell id="NWX7TOXLLlOgiwmodDzZ-2" value="ClusterIP&lt;div&gt;clusterip-postgresql&lt;/div&gt;&lt;div&gt;10.43.163.51&lt;/div&gt;" style="rounded=1;whiteSpace=wrap;html=1;" parent="lki_QQq5al1q6wE596kW-25" vertex="1">
          <mxGeometry x="365" y="290" width="120" height="60" as="geometry" />
        </mxCell>
        <mxCell id="NWX7TOXLLlOgiwmodDzZ-9" value="" style="endArrow=classic;startArrow=classic;html=1;rounded=0;entryX=0.5;entryY=1;entryDx=0;entryDy=0;exitX=0.5;exitY=0;exitDx=0;exitDy=0;exitPerimeter=0;" parent="lki_QQq5al1q6wE596kW-25" source="NWX7TOXLLlOgiwmodDzZ-8" target="NWX7TOXLLlOgiwmodDzZ-2" edge="1">
          <mxGeometry width="50" height="50" relative="1" as="geometry">
            <mxPoint x="510" y="310" as="sourcePoint" />
            <mxPoint x="560" y="260" as="targetPoint" />
          </mxGeometry>
        </mxCell>
        <mxCell id="NWX7TOXLLlOgiwmodDzZ-12" value="" style="endArrow=classic;startArrow=classic;html=1;rounded=0;exitX=0.943;exitY=0.576;exitDx=0;exitDy=0;exitPerimeter=0;entryX=0;entryY=0.75;entryDx=0;entryDy=0;" parent="lki_QQq5al1q6wE596kW-25" source="lki_QQq5al1q6wE596kW-6" target="NWX7TOXLLlOgiwmodDzZ-2" edge="1">
          <mxGeometry width="50" height="50" relative="1" as="geometry">
            <mxPoint x="510" y="390" as="sourcePoint" />
            <mxPoint x="560" y="340" as="targetPoint" />
          </mxGeometry>
        </mxCell>
        <mxCell id="lki_QQq5al1q6wE596kW-27" value="pods" style="text;html=1;align=center;verticalAlign=middle;resizable=0;points=[];autosize=1;strokeColor=none;fillColor=none;" parent="lki_QQq5al1q6wE596kW-25" vertex="1">
          <mxGeometry x="190" y="440" width="50" height="30" as="geometry" />
        </mxCell>
        <mxCell id="NWX7TOXLLlOgiwmodDzZ-10" value="port 5432" style="text;html=1;align=center;verticalAlign=middle;resizable=0;points=[];autosize=1;strokeColor=none;fillColor=none;" parent="lki_QQq5al1q6wE596kW-25" vertex="1">
          <mxGeometry x="270" y="400" width="70" height="30" as="geometry" />
        </mxCell>
        <mxCell id="NWX7TOXLLlOgiwmodDzZ-13" value="port 5432" style="text;html=1;align=center;verticalAlign=middle;resizable=0;points=[];autosize=1;strokeColor=none;fillColor=none;" parent="lki_QQq5al1q6wE596kW-25" vertex="1">
          <mxGeometry x="350" y="350" width="70" height="30" as="geometry" />
        </mxCell>
        <mxCell id="NWX7TOXLLlOgiwmodDzZ-11" value="port 5432" style="text;html=1;align=center;verticalAlign=middle;resizable=0;points=[];autosize=1;strokeColor=none;fillColor=none;" parent="lki_QQq5al1q6wE596kW-25" vertex="1">
          <mxGeometry x="455" y="390" width="70" height="30" as="geometry" />
        </mxCell>
        <mxCell id="-RkCZdhMI0uMIUcOqTmN-1" value="" style="shape=xor;whiteSpace=wrap;html=1;rotation=-60;" vertex="1" parent="lki_QQq5al1q6wE596kW-25">
          <mxGeometry x="317.41" y="93.15" width="92.59" height="121.28" as="geometry" />
        </mxCell>
        <mxCell id="-RkCZdhMI0uMIUcOqTmN-2" value="Ingress" style="text;html=1;align=center;verticalAlign=middle;resizable=0;points=[];autosize=1;strokeColor=none;fillColor=none;" vertex="1" parent="lki_QQq5al1q6wE596kW-25">
          <mxGeometry x="330" y="80" width="60" height="30" as="geometry" />
        </mxCell>
        <mxCell id="-RkCZdhMI0uMIUcOqTmN-4" value="django-ingress&lt;div&gt;157.159.11.201&lt;br&gt;&lt;/div&gt;" style="text;html=1;align=center;verticalAlign=middle;resizable=0;points=[];autosize=1;strokeColor=none;fillColor=none;" vertex="1" parent="lki_QQq5al1q6wE596kW-25">
          <mxGeometry x="305" y="130" width="110" height="40" as="geometry" />
        </mxCell>
        <mxCell id="-RkCZdhMI0uMIUcOqTmN-6" value="port 80" style="text;html=1;align=center;verticalAlign=middle;resizable=0;points=[];autosize=1;strokeColor=none;fillColor=none;" vertex="1" parent="lki_QQq5al1q6wE596kW-25">
          <mxGeometry x="400" y="100" width="60" height="30" as="geometry" />
        </mxCell>
        <mxCell id="-RkCZdhMI0uMIUcOqTmN-7" value="" style="endArrow=classic;startArrow=classic;html=1;rounded=0;exitX=0.75;exitY=0;exitDx=0;exitDy=0;entryX=0.25;entryY=0.5;entryDx=0;entryDy=0;entryPerimeter=0;" edge="1" parent="lki_QQq5al1q6wE596kW-25" source="NWX7TOXLLlOgiwmodDzZ-1" target="-RkCZdhMI0uMIUcOqTmN-1">
          <mxGeometry width="50" height="50" relative="1" as="geometry">
            <mxPoint x="350" y="130" as="sourcePoint" />
            <mxPoint x="400" y="80" as="targetPoint" />
          </mxGeometry>
        </mxCell>
        <mxCell id="-RkCZdhMI0uMIUcOqTmN-8" value="port 80" style="text;html=1;align=center;verticalAlign=middle;resizable=0;points=[];autosize=1;strokeColor=none;fillColor=none;" vertex="1" parent="lki_QQq5al1q6wE596kW-25">
          <mxGeometry x="220" y="180" width="60" height="30" as="geometry" />
        </mxCell>
        <mxCell id="lki_QQq5al1q6wE596kW-26" value="Kube Cluster" style="text;html=1;align=center;verticalAlign=middle;resizable=0;points=[];autosize=1;strokeColor=none;fillColor=none;" parent="1" vertex="1">
          <mxGeometry x="240" y="600" width="90" height="30" as="geometry" />
        </mxCell>
        <mxCell id="-RkCZdhMI0uMIUcOqTmN-5" value="" style="endArrow=classic;startArrow=classic;html=1;rounded=0;entryX=0;entryY=0.5;entryDx=0;entryDy=0;entryPerimeter=0;exitX=1;exitY=0.5;exitDx=0;exitDy=0;exitPerimeter=0;" edge="1" parent="1" source="-RkCZdhMI0uMIUcOqTmN-1" target="lki_QQq5al1q6wE596kW-14">
          <mxGeometry width="50" height="50" relative="1" as="geometry">
            <mxPoint x="290" y="150" as="sourcePoint" />
            <mxPoint x="398.1999999999998" y="122.55999999999995" as="targetPoint" />
          </mxGeometry>
        </mxCell>
      </root>
    </mxGraphModel>
  </diagram>
</mxfile>
